HIERARCHY
ROOT Hips
{
  OFFSET 1.44925e-005 102.336 -0.101585
  CHANNELS 6 Xposition Yposition Zposition Zrotation Xrotation Yrotation
  JOINT LeftUpLeg
  {
    OFFSET 8.9458 -8.66707 0.101652
    CHANNELS 3 Zrotation Xrotation Yrotation
    JOINT LeftLeg
    {
      OFFSET 0 -44.4227 1.3727
      CHANNELS 3 Zrotation Xrotation Yrotation
      JOINT LeftFoot
      {
        OFFSET -0.253549 -42.0924 -1.46059
        CHANNELS 3 Zrotation Xrotation Yrotation
        JOINT LeftToes
        {
          OFFSET -0.04 -4.41509 8.4991
          CHANNELS 3 Zrotation Xrotation Yrotation
          End Site
          {
            OFFSET 0.08 -0.047448 9.77979
          }
        }
      }
    }
  }
  JOINT Spine
  {
    OFFSET 0 11.8905 0
    CHANNELS 3 Zrotation Xrotation Yrotation
    JOINT Spine1
    {
      OFFSET 0 25.6574 0.127663
      CHANNELS 3 Zrotation Xrotation Yrotation
      JOINT RightShoulder
      {
        OFFSET -8.99 -0.362252 -0.22
        CHANNELS 3 Zrotation Xrotation Yrotation
        JOINT RightArm
        {
          OFFSET -10.2827 -0.00338 0.322123
          CHANNELS 3 Zrotation Xrotation Yrotation
          JOINT RightForeArm
          {
            OFFSET -26.364 0.099144 -1.42434
            CHANNELS 3 Zrotation Xrotation Yrotation
            JOINT RightHand
            {
              OFFSET -22.0324 0.085362 1.02216
              CHANNELS 3 Zrotation Xrotation Yrotation
              End Site
              {
                OFFSET -13.3284 -0.6 1.50291
              }
            }
          }
        }
      }
      JOINT LeftShoulder1
      {
        OFFSET 8.99 -0.362252 -0.22
        CHANNELS 3 Zrotation Xrotation Yrotation
        JOINT LeftArm
        {
          OFFSET 10.2827 -0.00337999 0.322123
          CHANNELS 3 Zrotation Xrotation Yrotation
          JOINT LeftForeArm
          {
            OFFSET 26.2597 0.099144 -1.42434
            CHANNELS 3 Zrotation Xrotation Yrotation
            JOINT LeftHand
            {
              OFFSET 22.0902 0.085362 1.02216
              CHANNELS 3 Zrotation Xrotation Yrotation
              End Site
              {
                OFFSET 13.419 -0.6 1.50291
              }
            }
          }
        }
      }
      JOINT Head
      {
        OFFSET 0 8.73416 0.011341
        CHANNELS 3 Zrotation Xrotation Yrotation
        End Site
        {
          OFFSET -0.29 12.7742 2.51395
        }
      }
    }
  }
  JOINT RightUpLeg
  {
    OFFSET -8.9458 -8.66707 0.101652
    CHANNELS 3 Zrotation Xrotation Yrotation
    JOINT RightLeg
    {
      OFFSET 0 -44.4227 1.3727
      CHANNELS 3 Zrotation Xrotation Yrotation
      JOINT RightFoot
      {
        OFFSET 0.253549 -42.0924 -1.46059
        CHANNELS 3 Zrotation Xrotation Yrotation
        JOINT RightToes
        {
          OFFSET 0.04 -4.41509 8.4991
          CHANNELS 3 Zrotation Xrotation Yrotation
          End Site
          {
            OFFSET -0.08 -0.137448 9.77979
          }
        }
      }
    }
  }
}
MOTION
Frames:	17
Frame Time:	0.0333333
68.5279 99.6738 2.41268 -11.6422 2.60429 -93.1525 3.64599 -44.5708 3.61456 5.31841 79.8374 15.1175 -7.06653 -15.8834 -0.436589 -1.30026e-009 8.75245e-006 -1.48124e-008 15.6058 15.9379 3.19489 -10.2285 -1.62344 7.06924 14.7954 0.339654 -2.93886 55.2736 -20.7356 97.034 6.17566 37.273 7.4295 -13.1237 9.07609 2.31549 -41.3465 3.15923 -3.1132 -14.7111 -15.766 52.6861 -12.0697 51.704 -0.826556 5.82328 9.61819 -0.917488 -0.629255 -6.55565 -14.2847 2.41273 9.48781 -8.06987 2.43638 20.3758 -9.8067 6.00881 -22.508 0.532267 0.0462048 0.000530889 0.662642 
66.4147 99.6609 2.44493 -10.9154 2.53138 -93.5973 3.53679 -42.3081 3.58873 2.85112 70.4776 17.7885 -7.04585 -16.0227 -0.443442 -1.30026e-009 8.75245e-006 -1.48124e-008 15.4555 15.4545 2.99567 -10.6798 -1.9913 6.72193 15.1839 0.418312 -2.59027 56.2912 -19.198 94.2604 6.11872 38.0747 7.48452 -13.2622 9.04877 2.48446 -42.0651 3.23332 -3.16047 -15.3297 -17.2009 47.9755 -12.3456 50.8509 -0.418762 5.82328 9.61819 -0.917488 -0.463719 -6.4216 -13.3651 2.18576 10.5731 -8.05841 2.38512 19.4025 -9.19073 6.43003 -22.8894 0.608776 0.0462048 0.000530889 0.662642 
64.2819 99.6238 2.5299 -10.0915 2.57257 -94.4628 3.63575 -38.9296 3.43885 1.87335 59.4024 18.8292 -6.49884 -15.1516 -0.357127 -1.30026e-009 8.75245e-006 -1.48124e-008 15.4282 14.7837 2.90345 -11.2494 -2.13517 6.54785 15.7429 0.533749 -2.09912 57.8495 -17.4769 90.2784 6.15351 39.0697 7.34811 -13.4347 9.02835 2.56469 -42.8715 3.32474 -3.22779 -16.4441 -18.7744 41.3452 -13.1867 50.4676 0.701156 5.82328 9.61819 -0.917488 -0.306016 -6.07497 -12.2859 2.01171 11.5674 -7.92735 2.24771 18.3166 -8.37229 6.20131 -23.2594 0.595942 0.0462048 0.000530889 0.662642 
61.9571 99.3867 2.68601 -9.3225 2.71893 -95.2015 3.53248 -34.9879 2.50092 1.44627 48.3578 20.0164 -6.26276 -14.0295 -0.284247 -1.30026e-009 8.75245e-006 -1.48124e-008 15.3797 14.0188 2.69835 -11.5242 -2.35511 6.21998 17.1832 0.705775 -1.45974 58.2085 -15.958 84.8966 6.80371 39.7034 6.74095 -13.7288 9.04652 2.2158 -43.4333 3.40198 -3.29991 -18.3818 -20.3571 33.0321 -14.585 50.6025 2.58503 5.82328 9.61819 -0.917488 -0.219993 -5.37694 -11.0019 1.93324 12.554 -7.77231 2.00273 17.6724 -7.52194 6.38949 -24.3337 0.680579 0.0462048 0.000530889 0.662642 
59.394 98.8756 2.96199 -8.83557 3.04599 -95.6633 3.38644 -30.5942 1.38583 1.33604 39.2425 22.1846 -6.74665 -13.7829 -0.29873 -1.30026e-009 8.75245e-006 -1.48124e-008 15.3946 13.2201 2.30977 -11.4614 -2.45876 5.70681 20.0234 0.970503 -0.666191 56.6823 -14.9222 78.1207 8.14934 40.4804 5.41608 -13.8824 9.07814 1.84057 -43.5261 3.43727 -3.35653 -21.2389 -22.0068 23.3673 -15.9317 50.2292 4.53039 5.82328 9.61819 -0.917488 -0.207068 -4.55023 -9.59883 1.89421 13.6277 -7.75654 1.75495 17.9351 -6.68951 7.25557 -25.7706 0.89803 0.0462048 0.000530889 0.662642 
56.6244 98.3089 3.35192 -8.62205 3.41172 -96.4438 3.37693 -25.5916 1.55028 1.32261 32.332 24.2926 -6.99629 -13.4919 -0.294666 -1.30026e-009 8.75245e-006 -1.48124e-008 14.984 12.2265 2.0677 -10.963 -1.95635 5.30722 23.7616 1.28444 0.0509225 54.3928 -14.3131 70.2003 9.93521 42.397 3.27778 -13.6088 9.1209 1.60679 -42.7844 3.39936 -3.39199 -25.4961 -24.185 12.5215 -16.7041 48.8691 6.27995 5.82328 9.61819 -0.917488 -0.316513 -3.66138 -7.99009 1.6466 14.8065 -7.90018 1.29812 18.7683 -5.57157 7.78193 -26.8045 1.0531 0.0462048 0.000530889 0.662642 
53.6213 97.8747 3.74552 -8.5096 3.14027 -97.2898 2.64022 -20.8259 2.78851 1.27596 27.3611 24.5743 -5.59375 -11.1239 -0.127962 -1.30026e-009 8.75245e-006 -1.48124e-008 12.6441 10.9141 2.0576 -9.18545 -1.09322 4.74484 27.3187 1.52981 0.422925 52.3803 -14.0832 60.9621 12.1783 45.2422 0.214767 -13.2841 9.20307 1.02632 -40.8801 3.25012 -3.37466 -31.8937 -26.3601 -0.00736694 -17.4446 48.1956 8.54738 5.82328 9.61819 -0.917488 -0.563559 -2.58867 -6.11157 0.839209 15.9173 -8.03732 0.286269 19.9525 -4.36466 8.56958 -27.6628 1.25872 0.0462048 0.000530889 0.662642 
50.5184 97.6215 4.03132 -8.50161 1.63407 -96.5267 0.260728 -17.8925 3.05701 1.17147 24.9808 22.8226 -2.46488 -7.40385 0.0325492 -1.30026e-009 8.75245e-006 -1.48124e-008 7.27615 9.74911 1.74728 -5.38421 -0.757226 3.26073 30.2087 1.65941 0.472536 50.3355 -14.5754 49.612 14.81 47.8987 -3.62898 -13.4958 9.29541 0.0667052 -37.9614 2.96392 -3.20549 -39.8435 -26.8413 -14.9843 -19.4112 49.8535 12.1652 5.82328 9.61819 -0.917488 -0.758537 -1.54686 -4.50436 -0.62693 16.4108 -7.04085 -0.680182 22.6715 -5.07357 11.7544 -28.0749 1.8836 0.0462048 0.000530889 0.662642 
47.5924 97.5992 4.2587 -8.59755 -0.771349 -93.7157 -3.12328 -16.7473 1.34183 1.09656 25.1715 20.725 0.562039 -5.5539 0.0142519 -1.30026e-009 8.75245e-006 -1.48124e-008 0.308644 9.64876 0.874557 -0.465238 -1.36236 0.977922 32.748 1.72693 0.386653 47.7022 -16.5918 35.9226 17.5247 50.759 -8.02515 -13.6153 9.37242 -0.697215 -34.6491 2.59934 -2.87452 -47.3068 -24.9131 -32.0039 -22.3042 52.3223 16.0472 5.82328 9.61819 -0.917488 -0.717321 -1.06059 -3.80143 -2.37064 14.9425 -5.0507 -0.69561 29.5808 -7.85237 16.55 -25.8162 2.42946 0.0462048 0.000530889 0.662642 
44.9274 97.7855 4.56125 -8.73728 -2.00679 -90.954 -5.81182 -15.591 -0.641508 1.09083 26.0635 19.8211 1.95037 -6.73139 0.00899734 -1.30026e-009 8.75245e-006 -1.48124e-008 -5.43219 10.7778 0.063431 3.69099 -2.3541 -1.0393 35.1528 1.78048 0.286698 43.8765 -20.111 20.8791 20.742 55.3093 -13.2747 -12.1625 9.48695 -1.27802 -31.5172 2.26459 -2.52098 -52.5737 -21.9232 -48.996 -22.8429 52.8899 16.4493 5.82328 9.61819 -0.917488 -0.706535 -1.32344 -3.42459 -3.98209 10.1657 -4.14574 -0.877974 41.955 -9.12774 19.2342 -18.9269 1.71827 0.0462048 0.000530889 0.662642 
42.4429 97.9637 4.92275 -8.93107 -2.89772 -90.237 -7.05364 -13.827 -1.24104 1.07027 26.4846 20.1255 1.96931 -9.02971 0.0620161 -1.30026e-009 8.75245e-006 -1.48124e-008 -9.52303 12.2802 -0.225918 6.72943 -3.14724 -2.40222 36.9537 1.81449 0.202724 38.3302 -23.2873 5.73274 24.8987 61.2325 -18.9166 -9.55239 9.63217 -1.96751 -28.6448 1.97033 -2.16576 -54.6773 -19.8627 -63.37 -21.1703 50.6478 15.0262 5.82328 9.61819 -0.917488 -1.12823 -1.9725 -1.86915 -5.13171 2.47679 -2.13286 -1.23367 57.0718 -9.9008 18.5128 -9.85303 0.190423 0.0462048 0.000530889 0.662642 
40.0462 98.0721 5.23764 -9.01321 -3.26595 -91.2464 -7.57495 -12.1558 -0.948934 0.968601 26.6613 20.799 1.58691 -10.7149 0.0926859 -1.30026e-009 8.75245e-006 -1.48124e-008 -13.1787 13.6385 -0.4449 9.49069 -3.92595 -3.71807 37.598 1.81964 0.15793 31.4809 -23.9832 -8.99063 26.0419 65.0643 -20.0757 -7.98653 9.70729 -2.43443 -25.8128 1.65524 -1.66797 -53.2684 -20.0802 -73.7668 -17.4913 48.3657 10.1466 5.82328 9.61819 -0.917488 -1.79581 -2.59552 1.38942 -5.46633 -6.19156 0.417274 -2.11876 71.2415 -9.63779 16.5411 -5.04445 -0.54361 0.0462048 0.000530889 0.662642 
37.6784 98.4556 5.54532 -9.01979 -3.23648 -92.1333 -7.62035 -10.3188 -0.494188 0.790436 26.1041 21.1002 1.19145 -11.7586 0.0990348 -1.30026e-009 8.75245e-006 -1.48124e-008 -15.7508 14.8758 -1.19369 11.7478 -4.79466 -5.27285 37.1193 1.80375 0.16335 24.5476 -22.6057 -22.7684 20.2997 63.1649 -13.2786 -7.72406 9.70717 -2.32656 -22.7758 1.29415 -0.942973 -49.7134 -22.7495 -80.8409 -12.7677 46.2704 2.15075 5.82328 9.61819 -0.917488 -2.11138 -3.10901 5.2954 -5.16295 -14.3081 1.81124 -5.58263 82.696 -6.50101 15.1196 -5.97774 -0.387731 0.0462048 0.000530889 0.662642 
35.396 98.9685 5.91471 -9.21203 -2.77116 -92.8733 -7.06684 -8.10424 0.451271 0.500177 25.2083 20.9938 0.645073 -12.9779 0.0936717 -1.30026e-009 8.75245e-006 -1.48124e-008 -16.3425 15.8697 -2.25059 12.3562 -5.07499 -6.65391 35.8981 1.77987 0.216563 17.9978 -21.2921 -34.6204 13.8248 56.1443 -5.37575 -7.50635 9.69878 -2.07917 -19.2461 0.8937 0.0399328 -46.1861 -26.569 -85.9631 -9.35086 41.948 -4.22489 5.82328 9.61819 -0.917488 -1.77378 -3.60099 8.70587 -4.51304 -21.7038 2.07177 -153.058 88.3793 140.296 14.319 -9.07854 -0.000811265 0.0462048 0.000530889 0.662642 
33.1393 99.3199 6.33173 -9.72093 -2.06141 -94.0102 -6.2781 -5.55194 1.79762 0.0180708 24.4468 20.9982 0.188069 -14.2678 0.082867 -1.30026e-009 8.75245e-006 -1.48124e-008 -15.6454 16.3507 -3.18003 11.4618 -4.33359 -7.58005 34.4081 1.76746 0.325695 11.7547 -20.7315 -43.6124 10.9257 49.0082 -1.95011 -7.32178 9.721 -2.38356 -15.1231 0.465825 1.39101 -44.5182 -30.1702 -90.4106 -7.62681 36.4852 -7.35425 5.82328 9.61819 -0.917488 -1.04433 -4.1391 11.3582 -3.47998 -28.46 2.22385 -174.414 82.2358 160.888 13.7811 -11.5255 0.276287 0.0462048 0.000530889 0.662642 
30.8416 99.5616 6.74931 -10.3379 -1.40958 -95.0914 -5.75102 -2.90503 2.84769 -0.459003 23.7067 21.112 -0.0435339 -15.2658 0.0747593 -1.30026e-009 8.75245e-006 -1.48124e-008 -14.7349 16.4899 -3.93757 10.4358 -3.13926 -8.20499 33.1759 1.77113 0.45627 6.45473 -20.0539 -49.5912 9.79651 45.3484 -1.30154 -7.89667 9.73455 -2.86369 -10.7686 0.0635853 3.1565 -47.5507 -32.4812 -96.1383 -6.51853 34.5232 -7.86274 5.82328 9.61819 -0.917488 -0.400209 -4.67217 13.2028 -2.3724 -34.4389 2.23751 -176.238 78.295 162.513 13.6787 -13.3276 0.482138 0.0462048 0.000530889 0.662642 
28.5434 99.7941 7.12793 -10.768 -0.929198 -95.5406 -5.49572 -0.526786 3.47688 -0.704007 22.9851 20.9176 -0.405837 -16.2875 0.0524483 -1.30026e-009 8.75245e-006 -1.48124e-008 -13.8089 16.5374 -4.56094 9.83967 -2.1862 -8.61996 32.4759 1.77642 0.542209 3.13885 -18.6575 -53.2028 9.49327 43.9736 -1.37798 -8.81869 9.73782 -3.21318 -6.75111 -0.228218 5.08377 -52.2717 -32.6907 -101.679 -5.40229 34.7596 -7.61474 5.82328 9.61819 -0.917488 -0.0938997 -5.08804 13.984 -1.72989 -39.6062 1.56308 -176.702 76.6341 163.162 14.2311 -15.0966 0.724589 0.0462048 0.000530889 0.662642 
